<?xml version="1.0" encoding="utf-8"?>
<!-- Generator: Adobe Illustrator 26.0.2, SVG Export Plug-In . SVG Version: 6.00 Build 0)  -->
<svg version="1.1" id="Layer_1" xmlns="http://www.w3.org/2000/svg" xmlns:xlink="http://www.w3.org/1999/xlink" x="0px" y="0px"
	 viewBox="0 0 1080 1080" style="enable-background:new 0 0 1080 1080;" xml:space="preserve">
<style type="text/css">
	.st0{fill:#304659;}
	.st1{fill:#FFFFFF;}
</style>
<g>
	<g>
		<path class="st0" d="M540,2.5C243.2,2.5,2.5,243.1,2.5,540s240.7,537.5,537.5,537.5s537.5-240.7,537.5-537.5S836.8,2.5,540,2.5z"
			/>
	</g>
	<path class="st1" d="M783.3,601.9L924.7,540l-141.4-61.9c-22.5-88.9-92.6-158.9-181.5-181.5L540,155.3l-61.9,141.4
		c-88.9,22.6-158.9,92.5-181.4,181.4L155.3,540l141.4,61.9c22.5,88.9,92.5,158.8,181.3,181.4h0L540,925l62-141.7h0
		C690.8,760.7,760.8,690.7,783.3,601.9z"/>
	<circle class="st0" cx="540" cy="540" r="62"/>
</g>
</svg>
